<svg width="207" height="48" viewBox="0 0 207 48" fill="none" xmlns="http://www.w3.org/2000/svg">
<path d="M26.2031 26.2031L30 18L21.7969 21.7969L18 30L26.2031 26.2031ZM16.9219 16.9688C18.8906 15 21.25 14.0156 24 14.0156C26.75 14.0156 29.0938 15 31.0312 16.9688C33 18.9062 33.9844 21.25 33.9844 24C33.9844 26.75 33 29.1094 31.0312 31.0781C29.0938 33.0156 26.75 33.9844 24 33.9844C21.25 33.9844 18.8906 33.0156 16.9219 31.0781C14.9844 29.1094 14.0156 26.75 14.0156 24C14.0156 21.25 14.9844 18.9062 16.9219 16.9688ZM23.2031 23.25C23.4219 23.0312 23.6875 22.9219 24 22.9219C24.3125 22.9219 24.5625 23.0312 24.75 23.25C24.9688 23.4375 25.0781 23.6875 25.0781 24C25.0781 24.3125 24.9688 24.5781 24.75 24.7969C24.5625 24.9844 24.3125 25.0781 24 25.0781C23.6875 25.0781 23.4219 24.9844 23.2031 24.7969C23.0156 24.5781 22.9219 24.3125 22.9219 24C22.9219 23.6875 23.0156 23.4375 23.2031 23.25Z" fill="#94A3B8"/>
<path d="M53.4091 29.5V17.8636H60.4318V19.1136H54.8182V23.0455H60.0682V24.2955H54.8182V28.25H60.5227V29.5H53.4091ZM63.7898 20.7727L65.8807 24.3409L67.9716 20.7727H69.517L66.6989 25.1364L69.517 29.5H67.9716L65.8807 26.1136L63.7898 29.5H62.2443L65.017 25.1364L62.2443 20.7727H63.7898ZM71.4304 32.7727V20.7727H72.7259V22.1591H72.8849C72.9834 22.0076 73.1198 21.8144 73.294 21.5795C73.4721 21.3409 73.7259 21.1288 74.0554 20.9432C74.3887 20.7538 74.8395 20.6591 75.4077 20.6591C76.1425 20.6591 76.7902 20.8428 77.3509 21.2102C77.9115 21.5777 78.349 22.0985 78.6634 22.7727C78.9777 23.447 79.1349 24.2424 79.1349 25.1591C79.1349 26.0833 78.9777 26.8845 78.6634 27.5625C78.349 28.2367 77.9134 28.7595 77.3565 29.1307C76.7997 29.4981 76.1577 29.6818 75.4304 29.6818C74.8698 29.6818 74.4209 29.589 74.0838 29.4034C73.7467 29.214 73.4872 29 73.3054 28.7614C73.1236 28.5189 72.9834 28.3182 72.8849 28.1591H72.7713V32.7727H71.4304ZM72.7486 25.1364C72.7486 25.7955 72.8452 26.3769 73.0384 26.8807C73.2315 27.3807 73.5137 27.7727 73.8849 28.0568C74.2562 28.3371 74.7107 28.4773 75.2486 28.4773C75.8092 28.4773 76.277 28.3295 76.652 28.0341C77.0308 27.7348 77.3149 27.3333 77.5043 26.8295C77.6974 26.322 77.794 25.7576 77.794 25.1364C77.794 24.5227 77.6993 23.9697 77.5099 23.4773C77.3243 22.9811 77.0421 22.589 76.6634 22.3011C76.2884 22.0095 75.8168 21.8636 75.2486 21.8636C74.7031 21.8636 74.2448 22.0019 73.8736 22.2784C73.5024 22.5511 73.2221 22.9337 73.0327 23.4261C72.8433 23.9148 72.7486 24.4848 72.7486 25.1364ZM82.5213 17.8636V29.5H81.1804V17.8636H82.5213ZM88.5227 29.6818C87.7348 29.6818 87.0436 29.4943 86.4489 29.1193C85.858 28.7443 85.3958 28.2197 85.0625 27.5455C84.733 26.8712 84.5682 26.0833 84.5682 25.1818C84.5682 24.2727 84.733 23.4792 85.0625 22.8011C85.3958 22.1231 85.858 21.5966 86.4489 21.2216C87.0436 20.8466 87.7348 20.6591 88.5227 20.6591C89.3106 20.6591 90 20.8466 90.5909 21.2216C91.1856 21.5966 91.6477 22.1231 91.9773 22.8011C92.3106 23.4792 92.4773 24.2727 92.4773 25.1818C92.4773 26.0833 92.3106 26.8712 91.9773 27.5455C91.6477 28.2197 91.1856 28.7443 90.5909 29.1193C90 29.4943 89.3106 29.6818 88.5227 29.6818ZM88.5227 28.4773C89.1212 28.4773 89.6136 28.3239 90 28.017C90.3864 27.7102 90.6723 27.3068 90.858 26.8068C91.0436 26.3068 91.1364 25.7652 91.1364 25.1818C91.1364 24.5985 91.0436 24.0549 90.858 23.5511C90.6723 23.0473 90.3864 22.6402 90 22.3295C89.6136 22.0189 89.1212 21.8636 88.5227 21.8636C87.9242 21.8636 87.4318 22.0189 87.0455 22.3295C86.6591 22.6402 86.3731 23.0473 86.1875 23.5511C86.0019 24.0549 85.9091 24.5985 85.9091 25.1818C85.9091 25.7652 86.0019 26.3068 86.1875 26.8068C86.3731 27.3068 86.6591 27.7102 87.0455 28.017C87.4318 28.3239 87.9242 28.4773 88.5227 28.4773ZM94.5241 29.5V20.7727H95.8196V22.0909H95.9105C96.0696 21.6591 96.3575 21.3087 96.7741 21.0398C97.1908 20.7708 97.6605 20.6364 98.1832 20.6364C98.2817 20.6364 98.4048 20.6383 98.5526 20.642C98.7003 20.6458 98.812 20.6515 98.8878 20.6591V22.0227C98.8423 22.0114 98.7382 21.9943 98.5753 21.9716C98.4162 21.9451 98.2476 21.9318 98.0696 21.9318C97.6454 21.9318 97.2666 22.0208 96.9332 22.1989C96.6037 22.3731 96.3423 22.6155 96.1491 22.9261C95.9598 23.233 95.8651 23.5833 95.8651 23.9773V29.5H94.5241ZM103.871 29.6818C103.03 29.6818 102.304 29.4962 101.695 29.125C101.089 28.75 100.621 28.2273 100.291 27.5568C99.9654 26.8826 99.8026 26.0985 99.8026 25.2045C99.8026 24.3106 99.9654 23.5227 100.291 22.8409C100.621 22.1553 101.079 21.6212 101.666 21.2386C102.257 20.8523 102.946 20.6591 103.734 20.6591C104.189 20.6591 104.638 20.7348 105.081 20.8864C105.524 21.0379 105.928 21.2841 106.291 21.625C106.655 21.9621 106.945 22.4091 107.161 22.9659C107.376 23.5227 107.484 24.2083 107.484 25.0227V25.5909H100.757V24.4318H106.121C106.121 23.9394 106.022 23.5 105.825 23.1136C105.632 22.7273 105.356 22.4223 104.996 22.1989C104.64 21.9754 104.219 21.8636 103.734 21.8636C103.2 21.8636 102.738 21.9962 102.348 22.2614C101.962 22.5227 101.664 22.8636 101.456 23.2841C101.248 23.7045 101.143 24.1553 101.143 24.6364V25.4091C101.143 26.0682 101.257 26.6269 101.484 27.0852C101.715 27.5398 102.036 27.8864 102.445 28.125C102.854 28.3598 103.329 28.4773 103.871 28.4773C104.223 28.4773 104.541 28.428 104.825 28.3295C105.113 28.2273 105.361 28.0758 105.57 27.875C105.778 27.6705 105.939 27.4167 106.053 27.1136L107.348 27.4773C107.212 27.9167 106.982 28.303 106.661 28.6364C106.339 28.9659 105.941 29.2235 105.467 29.4091C104.994 29.5909 104.462 29.6818 103.871 29.6818Z" fill="#94A3B8"/>
</svg>
