<svg width="20" height="20" viewBox="0 0 20 20" fill="none" xmlns="http://www.w3.org/2000/svg">
<path d="M12.1875 12.1875L15.9844 3.98438L7.78125 7.78125L3.98438 15.9844L12.1875 12.1875ZM2.90625 2.95312C4.875 0.984375 7.23438 0 9.98438 0C12.7344 0 15.0781 0.984375 17.0156 2.95312C18.9844 4.89062 19.9688 7.23438 19.9688 9.98438C19.9688 12.7344 18.9844 15.0938 17.0156 17.0625C15.0781 19 12.7344 19.9688 9.98438 19.9688C7.23438 19.9688 4.875 19 2.90625 17.0625C0.96875 15.0938 0 12.7344 0 9.98438C0 7.23438 0.96875 4.89062 2.90625 2.95312ZM9.1875 9.23438C9.40625 9.01562 9.67188 8.90625 9.98438 8.90625C10.2969 8.90625 10.5469 9.01562 10.7344 9.23438C10.9531 9.42188 11.0625 9.67188 11.0625 9.98438C11.0625 10.2969 10.9531 10.5625 10.7344 10.7812C10.5469 10.9688 10.2969 11.0625 9.98438 11.0625C9.67188 11.0625 9.40625 10.9688 9.1875 10.7812C9 10.5625 8.90625 10.2969 8.90625 9.98438C8.90625 9.67188 9 9.42188 9.1875 9.23438Z" fill="#94A3B8"/>
</svg>
