<svg width="26" height="20" viewBox="0 0 26 20" fill="none" xmlns="http://www.w3.org/2000/svg">
<mask id="path-1-outside-1_1001_12" maskUnits="userSpaceOnUse" x="-0.412693" y="-0.653694" width="26" height="21" fill="black">
<rect fill="white" x="-0.412693" y="-0.653694" width="26" height="21"/>
<path d="M10.5717 18.3619H5.60293V10.3463H2.60293L12.5873 1.34631L22.5717 10.3463H19.5717V18.3619H14.6029V12.3619H10.5717V18.3619Z"/>
</mask>
<path d="M10.5717 18.3619H5.60293V10.3463H2.60293L12.5873 1.34631L22.5717 10.3463H19.5717V18.3619H14.6029V12.3619H10.5717V18.3619Z" fill="#895AF6"/>
<path d="M10.5717 18.3619V19.3619H11.5717V18.3619H10.5717ZM5.60293 18.3619H4.60293V19.3619H5.60293V18.3619ZM5.60293 10.3463H6.60293V9.34631H5.60293V10.3463ZM2.60293 10.3463L1.93339 9.60353L-1.78814e-07 11.3463H2.60293V10.3463ZM12.5873 1.34631L13.2568 0.603533L12.5873 0L11.9178 0.603533L12.5873 1.34631ZM22.5717 10.3463V11.3463H25.1746L23.2412 9.60353L22.5717 10.3463ZM19.5717 10.3463V9.34631H18.5717V10.3463H19.5717ZM19.5717 18.3619V19.3619H20.5717V18.3619H19.5717ZM14.6029 18.3619H13.6029V19.3619H14.6029V18.3619ZM14.6029 12.3619H15.6029V11.3619H14.6029V12.3619ZM10.5717 12.3619V11.3619H9.57168V12.3619H10.5717ZM10.5717 18.3619V17.3619H5.60293V18.3619V19.3619H10.5717V18.3619ZM5.60293 18.3619H6.60293V10.3463H5.60293H4.60293V18.3619H5.60293ZM5.60293 10.3463V9.34631H2.60293V10.3463V11.3463H5.60293V10.3463ZM2.60293 10.3463L3.27247 11.0891L13.2568 2.08908L12.5873 1.34631L11.9178 0.603533L1.93339 9.60353L2.60293 10.3463ZM12.5873 1.34631L11.9178 2.08908L21.9021 11.0891L22.5717 10.3463L23.2412 9.60353L13.2568 0.603533L12.5873 1.34631ZM22.5717 10.3463V9.34631H19.5717V10.3463V11.3463H22.5717V10.3463ZM19.5717 10.3463H18.5717V18.3619H19.5717H20.5717V10.3463H19.5717ZM19.5717 18.3619V17.3619H14.6029V18.3619V19.3619H19.5717V18.3619ZM14.6029 18.3619H15.6029V12.3619H14.6029H13.6029V18.3619H14.6029ZM14.6029 12.3619V11.3619H10.5717V12.3619V13.3619H14.6029V12.3619ZM10.5717 12.3619H9.57168V18.3619H10.5717H11.5717V12.3619H10.5717Z" fill="black" mask="url(#path-1-outside-1_1001_12)"/>
</svg>
