<svg width="40" height="40" viewBox="0 0 40 40" fill="none" xmlns="http://www.w3.org/2000/svg">
<path d="M0 16C0 7.16344 7.16344 0 16 0H24C32.8366 0 40 7.16344 40 16V24C40 32.8366 32.8366 40 24 40H16C7.16344 40 0 32.8366 0 24V16Z" fill="#895AF6"/>
<path d="M17.2812 29L29 17.2812V20.1406L20.1406 29H17.2812ZM29 26.9844C29 27.5156 28.7969 27.9844 28.3906 28.3906C27.9844 28.7969 27.5156 29 26.9844 29H25.0156L29 25.0156V26.9844ZM13.0156 11H14.9844L11 14.9844V13.0156C11 12.4844 11.2031 12.0156 11.6094 11.6094C12.0156 11.2031 12.4844 11 13.0156 11ZM19.8594 11H22.7188L11 22.7188V19.8594L19.8594 11ZM27.5 11.0938C28.2812 11.3125 28.7656 11.7812 28.9531 12.5L12.5 28.9062C11.7812 28.6875 11.3125 28.2188 11.0938 27.5L27.5 11.0938Z" fill="white"/>
</svg>
