<svg width="17" height="17" viewBox="0 0 17 17" fill="none" xmlns="http://www.w3.org/2000/svg">
<path d="M2.71875 11.1562C4.5625 10.4062 6.32812 10.0312 8.01562 10.0312C9.70312 10.0312 11.4531 10.4062 13.2656 11.1562C15.1094 11.875 16.0312 12.8281 16.0312 14.0156V16.0312H0V14.0156C0 12.8281 0.90625 11.875 2.71875 11.1562ZM10.8281 6.84375C10.0469 7.625 9.10938 8.01562 8.01562 8.01562C6.92188 8.01562 5.98438 7.625 5.20312 6.84375C4.42188 6.0625 4.03125 5.125 4.03125 4.03125C4.03125 2.9375 4.42188 2 5.20312 1.21875C5.98438 0.40625 6.92188 0 8.01562 0C9.10938 0 10.0469 0.40625 10.8281 1.21875C11.6094 2 12 2.9375 12 4.03125C12 5.125 11.6094 6.0625 10.8281 6.84375Z" fill="#94A3B8"/>
</svg>
